<svg xmlns="http://www.w3.org/2000/svg" width="20" height="17" viewBox="0 0 20 17">
  <path id="Icon4" d="M7.5,17a8.7,8.7,0,0,1-4.308-1.108l-2.233.684a.428.428,0,0,1-.125.019.419.419,0,0,1-.294-.119.4.4,0,0,1-.1-.408l.65-2A5.222,5.222,0,0,1,0,10.929a5.88,5.88,0,0,1,3.442-5.1A6.691,6.691,0,0,1,6.226,1.678,9.4,9.4,0,0,1,11.667,0C16.262,0,20,3.087,20,6.881a6.007,6.007,0,0,1-1.21,3.565l.774,2.385a.394.394,0,0,1-.1.408.425.425,0,0,1-.42.1l-2.632-.806a9.1,9.1,0,0,1-1.951.826c.017-.008.025-.011.025-.013h-.006c-.052,0-.424.078-.748.151a5.759,5.759,0,0,0-.6.151h.006l.031,0a10.015,10.015,0,0,1-1.5.117c-4.595,0-8.333-3.087-8.333-6.881H3.34a.032.032,0,0,0,.023-.013,2.548,2.548,0,0,0,.079-1.041c0,.225,0,.338,0,.392v.026a.075.075,0,0,1,0-.02c0-.024-.008-.036-.012-.036a2.168,2.168,0,0,0-.09.634,4.923,4.923,0,0,0-2.5,4.1,4.468,4.468,0,0,0,1.041,2.813.4.4,0,0,1,.07.372l-.473,1.457,1.649-.5a.4.4,0,0,1,.125-.019.422.422,0,0,1,.22.061A7.813,7.813,0,0,0,7.5,16.19a7.126,7.126,0,0,0,5.7-2.549l1.146-.249A7.751,7.751,0,0,1,7.5,17ZM11.667.809c-4.135,0-7.5,2.724-7.5,6.071s3.364,6.071,7.5,6.071a8.636,8.636,0,0,0,4.468-1.205.433.433,0,0,1,.22-.06.423.423,0,0,1,.125.019l2.048.627-.6-1.84A.4.4,0,0,1,18,10.125a5.241,5.241,0,0,0,1.169-3.245C19.166,3.533,15.8.809,11.667.809Z" transform="translate(0 0)" fill="#f55661"/>
</svg>
