<svg xmlns="http://www.w3.org/2000/svg" width="21.711" height="19.755" viewBox="0 0 21.711 19.755">
  <g id="Icon2" transform="translate(0 0)">
    <path id="Shape2" d="M4.728,19.755a.854.854,0,0,1-.6-.254.874.874,0,0,1,0-1.228l3.719-3.731a.306.306,0,0,1,.033-.027L7.9,14.5H.839a.868.868,0,0,1,0-1.735H1.978V1.735H.839A.868.868,0,0,1,.839,0H20.873a.868.868,0,0,1,0,1.735H19.734V12.763h1.139a.863.863,0,0,1,.8.863.873.873,0,0,1-.794.867H13.823l.022.018a.308.308,0,0,1,.031.026l3.717,3.731a.882.882,0,0,1,.006,1.226.854.854,0,0,1-.6.258.845.845,0,0,1-.606-.251l-3.72-3.732a.88.88,0,0,1,0-1.226.378.378,0,0,1,.038-.034l.02-.017H9l.022.018a.384.384,0,0,1,.036.031A.884.884,0,0,1,9.05,15.77L5.333,19.5A.854.854,0,0,1,4.728,19.755ZM3.691,1.735V12.763H18.023V1.735Z" fill="#495059"/>
    <path id="Shape1" d="M1.63,5.054,4.357,2.585l2.781,2.7a.977.977,0,0,0,.681.275h.065a.984.984,0,0,0,.656-.314l2.089-2.278a1,1,0,0,0,.551.165.97.97,0,0,0,.963-.976L12.13.951a.967.967,0,0,0-.319-.7A1,1,0,0,0,11.073,0L9.858.1A.973.973,0,0,0,9.2.443a.955.955,0,0,0-.009,1.232L7.778,3.21,5.061.574A.981.981,0,0,0,3.722.551L.316,3.631A.961.961,0,0,0,.254,4.995.983.983,0,0,0,1.63,5.054Z" transform="translate(4.859 4.327)" fill="#df535d"/>
  </g>
</svg>
