<svg xmlns="http://www.w3.org/2000/svg" width="20.991" height="20.258" viewBox="0 0 20.991 20.258">
  <g id="Icon5" transform="translate(0)">
    <path id="Shape2" d="M.634,4.832H2.745a.653.653,0,0,1,.463.265,1.973,1.973,0,0,1,.39.969,3.13,3.13,0,0,0,.721,1.663,1.864,1.864,0,0,0,1.386.662,1.81,1.81,0,0,0,1.314-.6A3.07,3.07,0,0,0,7.766,6.24l.747-3.852a1.692,1.692,0,0,1,.421-.909l.054-.039.27-.154h.08a.572.572,0,0,1,.453.231,1.828,1.828,0,0,1,.4.989l1.337,9.164a3.074,3.074,0,0,0,.71,1.666,1.782,1.782,0,0,0,2.77,0,3.082,3.082,0,0,0,.712-1.666l.825-5.609a1.964,1.964,0,0,1,.379-.954A.669.669,0,0,1,17.4,4.83H19.37a.641.641,0,0,0,.443-1.094.615.615,0,0,0-.441-.189H17.4a1.942,1.942,0,0,0-1.442.731,3.3,3.3,0,0,0-.666,1.6l-.812,5.6a1.842,1.842,0,0,1-.4.989.594.594,0,0,1-.452.243.617.617,0,0,1-.442-.231,1.849,1.849,0,0,1-.411-1L11.452,2.315A3.134,3.134,0,0,0,10.73.65,1.889,1.889,0,0,0,9.344,0a1.86,1.86,0,0,0-1.33.592A3.068,3.068,0,0,0,7.282,2.14L6.528,5.99a1.841,1.841,0,0,1-.4.9l-.034.039-.349.2L5.629,7.1a.688.688,0,0,1-.383-.222,1.962,1.962,0,0,1-.409-.992,3.091,3.091,0,0,0-.67-1.608,1.879,1.879,0,0,0-1.428-.728H.634A.637.637,0,0,0,0,4.19a.63.63,0,0,0,.634.642Z" transform="translate(0 6.262)" fill="#4e545e"/>
    <path id="Shape1" d="M19.6,9.037H17.467A.666.666,0,0,1,17,8.776a1.924,1.924,0,0,1-.395-.957,3.053,3.053,0,0,0-.73-1.64,1.908,1.908,0,0,0-1.4-.653,1.854,1.854,0,0,0-1.33.594,3,3,0,0,0-.757,1.531l-.756,3.8a1.645,1.645,0,0,1-.426.9l-.055.039-.273.152h-.084a.586.586,0,0,1-.458-.228,1.777,1.777,0,0,1-.4-.976L8.576,2.292A3,3,0,0,0,7.857.649a1.835,1.835,0,0,0-2.8,0,3,3,0,0,0-.721,1.643L3.5,7.827a1.908,1.908,0,0,1-.384.941.679.679,0,0,1-.478.273h-2A.637.637,0,0,0,0,9.675a.625.625,0,0,0,.189.446.633.633,0,0,0,.447.186h2A1.983,1.983,0,0,0,4.1,9.586,3.206,3.206,0,0,0,4.77,8.01l.822-5.53a1.788,1.788,0,0,1,.4-.975.6.6,0,0,1,.458-.24.63.63,0,0,1,.447.228,1.8,1.8,0,0,1,.416.989l1.34,9.04a3.052,3.052,0,0,0,.731,1.643,1.931,1.931,0,0,0,1.4.641,1.909,1.909,0,0,0,1.347-.583,3,3,0,0,0,.741-1.528l.759-3.8a1.8,1.8,0,0,1,.4-.885l.035-.038.353-.2.117.028a.7.7,0,0,1,.387.219A1.9,1.9,0,0,1,15.337,8a3.007,3.007,0,0,0,.679,1.586,1.917,1.917,0,0,0,1.445.718H19.6a.636.636,0,0,0,.639-.633.629.629,0,0,0-.633-.632Z" transform="translate(0.754)" fill="#f55661"/>
  </g>
</svg>
