<svg xmlns="http://www.w3.org/2000/svg" width="20" height="20" viewBox="0 0 20 20">
  <path id="Icon5" d="M20,20H0v-.833H20V20h0Zm-4.582-1.667a.834.834,0,0,1-.833-.833V6.25a.834.834,0,0,1,.833-.833h2.5a.834.834,0,0,1,.833.833V17.5a.834.834,0,0,1-.833.833Zm0-.833h2.5V8.333h-2.5Zm0-10h2.5V6.25h-2.5ZM8.75,18.333a.834.834,0,0,1-.833-.833V11.25a.834.834,0,0,1,.833-.833h2.5a.834.834,0,0,1,.833.833V17.5a.834.834,0,0,1-.833.833Zm0-.833h2.5V13.333H8.75Zm0-5h2.5V11.25H8.75ZM2.084,18.333A.834.834,0,0,1,1.25,17.5V10a.834.834,0,0,1,.833-.833h2.5A.834.834,0,0,1,5.416,10v7.5a.834.834,0,0,1-.833.833Zm0-.833h2.5V12.083h-2.5Zm0-6.25h2.5V10h-2.5ZM.422,7.322,4.4,3.343a1.435,1.435,0,0,1,2.03,0L9.574,6.484a.6.6,0,0,0,.851,0L16.078.833H14.167V0h2.916A.416.416,0,0,1,17.5.417V3.333h-.833V1.422L11.015,7.074a1.436,1.436,0,0,1-2.03,0L5.843,3.931a.605.605,0,0,0-.852,0L1.012,7.911Z" fill="#f55661"/>
</svg>
