<svg xmlns="http://www.w3.org/2000/svg" width="19.518" height="17.374" viewBox="0 0 19.518 17.374">
  <g id="Icon1" transform="translate(0 0)">
    <path id="Shape" d="M6.381,14.48A2.244,2.244,0,0,1,4.14,12.239H.54A.541.541,0,0,1,0,11.7V10.037a.548.548,0,0,1,.159-.389L1.3,8.475V6.3A5.08,5.08,0,0,1,4.513,1.517a1.91,1.91,0,0,1,3.739,0A5.081,5.081,0,0,1,11.462,6.3V8.48l1.144,1.173a.566.566,0,0,1,.156.387V11.7a.541.541,0,0,1-.54.539h-3.6A2.244,2.244,0,0,1,6.381,14.48ZM5.214,12.236A1.217,1.217,0,0,0,6.38,13.392a1.218,1.218,0,0,0,1.16-1.156ZM6.376,1.071a.839.839,0,0,0-.837.879v.379A3.99,3.99,0,0,0,2.375,6.3V8.916l-1.3,1.335v.906H11.681l0-.909-1.3-1.335V6.3A3.99,3.99,0,0,0,7.213,2.333V1.95a.838.838,0,0,0-.837-.879Z" transform="translate(3.345 2.894)" fill="#f55661"/>
    <path id="Shape-2" data-name="Shape" d="M16.984,7.892h-.693a.23.23,0,0,1-.23-.223,5.2,5.2,0,0,0-3-4.458.231.231,0,0,1-.121-.3l.263-.64a.23.23,0,0,1,.3-.117,6.328,6.328,0,0,1,3.7,5.5.228.228,0,0,1-.226.238Zm-13.755,0H2.537a.23.23,0,0,1-.166-.07.234.234,0,0,1-.065-.167,6.333,6.333,0,0,1,3.705-5.5.23.23,0,0,1,.3.117l.263.64a.23.23,0,0,1-.121.3,5.188,5.188,0,0,0-3,4.458A.229.229,0,0,1,3.229,7.892ZM19.288,7.88H18.6a.231.231,0,0,1-.23-.225,7.519,7.519,0,0,0-4.43-6.577.229.229,0,0,1-.122-.3l.261-.64a.232.232,0,0,1,.129-.123A.223.223,0,0,1,14.287,0a.234.234,0,0,1,.1.021,8.67,8.67,0,0,1,5.135,7.624.231.231,0,0,1-.23.236ZM.92,7.88H.23a.232.232,0,0,1-.165-.069A.234.234,0,0,1,0,7.645,8.671,8.671,0,0,1,5.135.021a.229.229,0,0,1,.177,0,.228.228,0,0,1,.129.122L5.7.779a.229.229,0,0,1-.122.3A7.516,7.516,0,0,0,1.15,7.655.232.232,0,0,1,.92,7.88Z" fill="#484f58"/>
  </g>
</svg>
