<svg xmlns="http://www.w3.org/2000/svg" width="19.994" height="18" viewBox="0 0 19.994 18">
  <path id="Icon3" d="M17.083,18H1.25A1.24,1.24,0,0,1,0,16.772V1.227A1.24,1.24,0,0,1,1.25,0H12.5V.818H1.25a.413.413,0,0,0-.417.409V16.772a.414.414,0,0,0,.417.41H17.083a.414.414,0,0,0,.417-.41V9h.833v7.772A1.24,1.24,0,0,1,17.083,18Zm-7.5-4.5H6.666a.414.414,0,0,1-.417-.41V10.227a.407.407,0,0,1,.122-.289L16.216.273a.967.967,0,0,1,1.318,0l2.188,2.148a.9.9,0,0,1,0,1.294L9.877,13.38A.421.421,0,0,1,9.583,13.5Zm-2.5-3.1v2.285H9.41Zm8.125-7.978-7.536,7.4L10,12.1l7.536-7.4Zm1.666-1.6a.1.1,0,0,0-.07.035L15.8,1.84l2.327,2.285,1.007-.989a.1.1,0,0,0,.029-.068A.1.1,0,0,0,19.132,3L16.945.851A.1.1,0,0,0,16.875.816Z" fill="#fff"/>
</svg>
